<svg version="1.1" id="Layer_1" xmlns="http://www.w3.org/2000/svg" xmlns:xlink="http://www.w3.org/1999/xlink" viewBox="0 0 512 512" xml:space="preserve">

  <!-- Fondo circular gris -->
  <circle cx="256" cy="256" r="256" fill="#bfbfbf"/>

  
  <g transform="translate(70,80) scale(0.7)">
  <g id="SVGRepo_iconCarrier">
    <!-- Parte original del SVG (rectángulos, polígonos, líneas, etc.) -->
    <path d="M0,304.084V28.532c0-4.896,4.184-8.888,9.288-8.888h436.536c5.104,0,9.288,4,9.288,8.888v275.552H0z"></path>
    <g>
      <path style="fill:#999999;" d="M455.112,304.084v37.92c0,5.216-4.184,9.488-9.288,9.488H9.288c-5.104,0-9.288-4.264-9.288-9.48v-37.92L455.112,304.084L455.112,304.084z"></path>
      <polygon style="fill:#999999;" points="161.184,417.86 293.92,417.86 284.448,351.492 170.664,351.492 "></polygon>
    </g>
    </g>
    <g>
      <polygon style="fill:#636363;" points="284.448,351.492 170.664,351.492 164.76,392.86 286.656,366.964 "></polygon>
      <rect x="128" y="417.836" style="fill:#636363;" width="199.112" height="9.48"></rect>
    </g>
    <g>
      <rect x="105.496" y="232.316" style="fill:#FFFFFF;" width="244.12" height="9.48"></rect>
      <rect x="55.512" y="261.956" style="fill:#FFFFFF;" width="344.08" height="9.48"></rect>
    </g>
    <path d="M503.216,492.356H356.8c-4.832,0-8.784-3.952-8.784-8.784V208.308c0-4.832,3.952-8.784,8.784-8.784h146.416 c4.832,0,8.784,3.952,8.784,8.784v275.264C512,488.396,508.048,492.356,503.216,492.356z"></path>
    <rect x="356.8" y="222.948" width="146.416" height="234.24"></rect>
    <g>
      <path style="fill:#999999;" d="M447.424,214.164h-35.136c-1.608,0-2.928-1.32-2.928-2.928l0,0c0-1.608,1.32-2.928,2.928-2.928 h35.136c1.608,0,2.928,1.32,2.928,2.928l0,0C450.352,212.844,449.032,214.164,447.424,214.164z"></path>
      <path style="fill:#999999;" d="M447.576,474.78H412.44c-1.608,0-2.928-1.32-2.928-2.928l0,0c0-1.608,1.32-2.928,2.928-2.928h35.136 c1.608,0,2.928,1.32,2.928,2.928l0,0C450.504,473.468,449.184,474.78,447.576,474.78z"></path>
    </g>
    <g>
      <rect x="374.376" y="431.548" style="fill:#FFFFFF;" width="111.272" height="4.744"></rect>
      <rect x="374.376" y="412.948" style="fill:#FFFFFF;" width="111.272" height="4.744"></rect>
      <rect x="374.376" y="394.316" style="fill:#FFFFFF;" width="111.272" height="4.744"></rect>
      <rect x="374.376" y="375.74" style="fill:#FFFFFF;" width="111.272" height="4.744"></rect>
    </g>

    <!-- Logo GitHub morado/fucsia reemplazando el primer logo rojo -->
    <g transform="translate(139,60) scale(0.35)">
      <path fill="#9b59b6" d="M256 32C132.3 32 32 132.3 32 256c0 99.7 64.7 184.2 154.3 213.9 11.3 2.1 15.4-4.9 15.4-10.9 0-5.4-.2-19.8-.3-38.8-62.8 13.6-76-30.3-76-30.3-10.3-26.1-25.1-33.1-25.1-33.1-20.5-14 .2-13.7 1.4-13.7 22.7 1.6 34.7 23.3 34.7 23.3 20.1 34.5 52.7 24.6 65.5 18.8 2-14.6 7.9-24.6 14.3-30.3-50.1-5.7-102.7-25-102.7-111.3 0-24.6 8.8-44.7 23.2-60.5-2.3-5.7-10.1-28.6 2.2-59.6 0 0 19-6 62.4 23.1 18-5 37.3-7.5 56.5-7.6 19.2.1 38.5 2.6 56.5 7.6 43.4-29.1 62.4-23.1 62.4-23.1 12.3 31 4.5 53.9 2.2 59.6 14.4 15.8 23.2 35.9 23.2 60.5 0 86.5-52.7 105.6-102.9 111.2 8.1 7 15.3 20.9 15.3 42.1 0 30.4-.3 54.9-.3 62.4 0 6 4.1 13.1 15.5 10.9C415.3 440.2 480 355.7 480 256c0-123.7-100.3-224-224-224z"/>
    </g>

    <!-- Logo GitHub morado/fucsia reemplazando el segundo logo rojo -->
    <g transform="translate(395,250) scale(0.15)">
      <path fill="#9b59b6" d="M256 32C132.3 32 32 132.3 32 256c0 99.7 64.7 184.2 154.3 213.9 11.3 2.1 15.4-4.9 15.4-10.9 0-5.4-.2-19.8-.3-38.8-62.8 13.6-76-30.3-76-30.3-10.3-26.1-25.1-33.1-25.1-33.1-20.5-14 .2-13.7 1.4-13.7 22.7 1.6 34.7 23.3 34.7 23.3 20.1 34.5 52.7 24.6 65.5 18.8 2-14.6 7.9-24.6 14.3-30.3-50.1-5.7-102.7-25-102.7-111.3 0-24.6 8.8-44.7 23.2-60.5-2.3-5.7-10.1-28.6 2.2-59.6 0 0 19-6 62.4 23.1 18-5 37.3-7.5 56.5-7.6 19.2.1 38.5 2.6 56.5 7.6 43.4-29.1 62.4-23.1 62.4-23.1 12.3 31 4.5 53.9 2.2 59.6 14.4 15.8 23.2 35.9 23.2 60.5 0 86.5-52.7 105.6-102.9 111.2 8.1 7 15.3 20.9 15.3 42.1 0 30.4-.3 54.9-.3 62.4 0 6 4.1 13.1 15.5 10.9C415.3 440.2 480 355.7 480 256c0-123.7-100.3-224-224-224z"/>
    </g>

  </g>
</svg>
